<?xml version="1.0" encoding="utf-8"?>
<!-- Generator: Adobe Illustrator 27.1.1, SVG Export Plug-In . SVG Version: 6.00 Build 0)  -->
<svg version="1.1" id="Layer_1" xmlns="http://www.w3.org/2000/svg" xmlns:xlink="http://www.w3.org/1999/xlink" x="0px" y="0px"
	 viewBox="0 0 566.93 121.37" style="enable-background:new 0 0 566.93 121.37;" xml:space="preserve">
<style type="text/css">
	.st0{fill:#51626F;}
	.st1{fill:#0047BB;}
	.st2{fill:#E8541E;}
	.st3{fill:#EEAF30;}
	.st4{fill:#3FCFD5;}
	.st5{fill:#056CEC;}
	.st6{fill:#6B80F6;}
</style>
<g>
	<path class="st0" d="M194.96,30.13l-22.82,51.13h9.16l5.9-13.28h26.97l5.9,13.28h9.31l-22.82-51.13H194.96z M190.49,60.57L197.4,45
		l2.98-7.25h0.61l2.97,7.25l6.92,15.57H190.49z M238,30.13h-2.52v51.13H238h5.72h32.66v-7.4h-32.66V59.2h31.51v-7.32h-31.51V37.53
		h32.66v-7.4h-32.66H238z M324.3,32.61c-3.97-2.16-8.67-3.24-14.12-3.24c-5.34,0-10.01,1.08-14,3.24c-3.99,2.16-7.1,5.21-9.31,9.16
		c-2.21,3.94-3.32,8.58-3.32,13.93s1.11,9.99,3.32,13.93c2.21,3.94,5.32,6.99,9.31,9.16c3.72,2.02,8.05,3.05,12.94,3.19l7.47,10.05
		h10.38l-8.86-10.9c2.23-0.54,4.3-1.31,6.19-2.34c3.97-2.16,7.06-5.21,9.27-9.16c2.21-3.94,3.32-8.58,3.32-13.93
		s-1.1-9.98-3.32-13.93C331.35,37.82,328.27,34.77,324.3,32.61z M326.21,66.1c-1.32,2.72-3.32,4.73-5.99,6.03
		c-2.67,1.29-6.02,1.94-10.03,1.94c-4.02,0-7.36-0.65-10.03-1.94c-2.67-1.3-4.65-3.31-5.95-6.03c-1.3-2.72-1.95-6.19-1.95-10.42
		c0-4.27,0.65-7.76,1.95-10.45c1.3-2.7,3.28-4.69,5.95-5.99c2.67-1.3,6.02-1.95,10.03-1.95c4.02,0,7.36,0.65,10.03,1.95
		c2.67,1.29,4.67,3.29,5.99,5.99c1.32,2.7,1.98,6.18,1.98,10.45C328.19,59.91,327.52,63.38,326.21,66.1z M384.73,59.5
		c0,3.46-0.53,6.26-1.6,8.39c-1.07,2.14-2.76,3.7-5.07,4.69c-2.32,0.99-5.36,1.49-9.12,1.49c-3.71,0-6.73-0.49-9.04-1.49
		c-2.32-0.99-4.02-2.55-5.11-4.69c-1.1-2.13-1.64-4.93-1.64-8.39V30.13h-8.16v29.91c0,4.63,0.94,8.58,2.82,11.87
		c1.88,3.28,4.6,5.79,8.16,7.52c3.56,1.73,7.88,2.59,12.97,2.59c5.14,0,9.49-0.86,13.05-2.59c3.56-1.73,6.28-4.23,8.16-7.52
		c1.88-3.28,2.83-7.24,2.83-11.87V30.13h-8.24V59.5z M402.58,81.25h8.24V30.13h-8.24V81.25z M466.22,37.53v-7.4h-20.07h-8.16h-20.15
		v7.4h20.15v43.72h8.16V37.53H466.22z M485.33,30.13l-22.82,51.13h9.16l5.9-13.28h26.97l5.9,13.28h9.31l-22.81-51.13H485.33z
		 M480.86,60.57L487.77,45l2.97-7.25h0.61l2.97,7.25l6.92,15.57H480.86z M565.25,60.5c-1.12-1.88-2.81-3.44-5.07-4.66
		c-2.27-1.22-5.1-2.13-8.51-2.75l-12.44-2.14c-1.98-0.46-3.61-0.95-4.88-1.49c-1.27-0.54-2.21-1.26-2.82-2.18
		c-0.61-0.91-0.92-2.09-0.92-3.51c0-1.57,0.43-2.86,1.3-3.85s2.25-1.74,4.16-2.25c1.91-0.51,4.41-0.76,7.52-0.76
		c3.56,0,6.38,0.34,8.47,1.03c2.09,0.69,3.59,1.73,4.5,3.13c0.92,1.4,1.38,3.14,1.38,5.23v0.99h8.16v-0.46
		c0-3.36-0.78-6.34-2.33-8.97c-1.55-2.62-3.93-4.69-7.13-6.22c-3.2-1.53-7.3-2.29-12.29-2.29c-4.02,0-7.41,0.42-10.19,1.26
		c-2.77,0.84-5.02,1.97-6.75,3.39c-1.73,1.43-3,3.03-3.81,4.81c-0.82,1.78-1.22,3.58-1.22,5.42c0,2.8,0.62,5.13,1.87,6.98
		c1.25,1.86,2.98,3.33,5.23,4.42c2.24,1.09,4.78,1.92,7.63,2.48l12.51,2.06c3.21,0.61,5.52,1.43,6.94,2.44
		c1.43,1.02,2.14,2.65,2.14,4.88c0,1.58-0.42,2.89-1.26,3.93c-0.84,1.04-2.23,1.81-4.16,2.29c-1.93,0.48-4.53,0.72-7.78,0.72
		c-3.77,0-6.72-0.34-8.85-1.03c-2.14-0.68-3.66-1.7-4.58-3.05c-0.91-1.35-1.37-3.04-1.37-5.07v-1.22h-8.24v0.46
		c0,3.56,0.86,6.65,2.6,9.27c1.73,2.62,4.31,4.64,7.74,6.07c3.43,1.42,7.67,2.13,12.71,2.13c5.03,0,9.13-0.7,12.28-2.1
		c3.15-1.4,5.47-3.25,6.94-5.53c1.47-2.29,2.22-4.73,2.22-7.33C566.93,64.57,566.37,62.38,565.25,60.5z"/>
	<g>
		<path class="st1" d="M127.6,61.24c-3.12,10.76-9.32,20.19-17.59,27.3l0,0c-0.04,0.04-0.09,0.07-0.13,0.11
			c-0.54,0.46-1.09,0.91-1.64,1.35c-0.07,0.05-0.14,0.11-0.2,0.16c-0.6,0.47-1.21,0.93-1.83,1.38c-0.03,0.02-0.06,0.04-0.09,0.06
			c-3.32,2.39-6.91,4.43-10.72,6.07c-0.02,0.01-0.04,0.02-0.06,0.02c-0.71,0.31-1.43,0.6-2.16,0.87c-0.13,0.05-0.27,0.1-0.41,0.15
			c-0.61,0.23-1.23,0.45-1.86,0.66c-0.2,0.07-0.4,0.13-0.6,0.19c-0.56,0.18-1.13,0.35-1.7,0.52c-0.24,0.07-0.49,0.14-0.73,0.2
			c-0.53,0.14-1.07,0.28-1.61,0.41c-0.27,0.07-0.55,0.13-0.83,0.19c-0.52,0.12-1.04,0.22-1.56,0.33c-0.3,0.06-0.59,0.12-0.89,0.17
			c-0.52,0.09-1.03,0.17-1.55,0.25c-0.31,0.05-0.61,0.09-0.92,0.13c-0.52,0.07-1.05,0.13-1.58,0.18c-0.3,0.03-0.61,0.07-0.91,0.1
			c-0.57,0.05-1.14,0.08-1.72,0.12c-0.27,0.02-0.53,0.04-0.79,0.05c-0.84,0.04-1.69,0.06-2.54,0.06
			c-25.91,0-47.76-17.33-54.63-41.03L0,66.56c9.17,31.66,38.36,54.81,72.97,54.81c34.61,0,63.8-23.16,72.97-54.81L127.6,61.24z"/>
		<path class="st2" d="M72.97,102.27c14.15,0,27.09-5.18,37.04-13.73L97.57,74.05c-6.61,5.68-15.2,9.12-24.6,9.12
			c-20.87,0-37.78-16.92-37.78-37.78l0,0h-19.1l0,0C16.09,76.81,41.56,102.27,72.97,102.27z"/>
		<path class="st3" d="M56.97,55c-1.69-2.81-2.68-6.09-2.68-9.61c0-10.32,8.37-18.68,18.68-18.68c10.32,0,18.68,8.37,18.68,18.68
			c0,3.55-1.01,6.85-2.72,9.68l16.39,9.84c3.45-5.7,5.43-12.38,5.43-19.52c0-20.87-16.92-37.78-37.78-37.78
			c-20.87,0-37.78,16.92-37.78,37.78c0,7.12,1.97,13.77,5.39,19.45L56.97,55z"/>
		<path class="st4" d="M72.97,102.27c25.91,0,47.76-17.33,54.63-41.04l9.14,2.65c1.7-5.88,2.66-12.07,2.66-18.5
			c0-17.56-6.82-33.51-17.95-45.39l-13.94,13.05c7.93,8.46,12.79,19.83,12.79,32.34c0,26.14-21.19,47.33-47.33,47.33
			c-13.65,0-25.93-5.78-34.57-15.02l-6.99,6.52C41.78,95.33,56.57,102.27,72.97,102.27z"/>
		<path class="st5" d="M72.97,102.27c-16.4,0-31.19-6.95-41.57-18.05l-7.01,6.51c12.12,12.97,29.37,21.08,48.52,21.08
			c30.26,0,55.8-20.24,63.82-47.92l-9.14-2.65C120.74,84.94,98.89,102.27,72.97,102.27z"/>
		<path class="st6" d="M110.01,88.54l-6.22-7.24c-8.28,7.12-19.05,11.43-30.82,11.43c-13.65,0-25.93-5.78-34.57-15.02l-6.99,6.52
			c10.38,11.11,25.16,18.05,41.57,18.05C87.12,102.27,100.06,97.09,110.01,88.54z"/>
	</g>
</g>
</svg>
